HIERARCHY
ROOT Hips
{
 OFFSET 0.000000 0.000000 0.000000
 CHANNELS 6 Xposition Yposition Zposition Yrotation Xrotation Zrotation
 JOINT Chest
 {
  OFFSET 0.000000 9.588913 -0.003946
  CHANNELS 3 Yrotation Xrotation Zrotation
  JOINT Chest2
  {
   OFFSET 0.000000 9.541882 0.008053
   CHANNELS 3 Yrotation Xrotation Zrotation
   JOINT Chest3
   {
    OFFSET 0.000000 9.501360 0.000000
    CHANNELS 3 Yrotation Xrotation Zrotation
    JOINT Chest4
    {
     OFFSET 0.000000 9.491660 0.000000
     CHANNELS 3 Yrotation Xrotation Zrotation
     JOINT Neck
     {
      OFFSET 0.000000 14.331917 0.000000
      CHANNELS 3 Yrotation Xrotation Zrotation
      JOINT Head
      {
       OFFSET 0.000000 8.884799 0.017034
       CHANNELS 3 Yrotation Xrotation Zrotation
       End Site
       {
        OFFSET 0.000000 16.896195 0.008993
       }
      }
     }
     JOINT RightCollar
     {
      OFFSET -2.923010 9.499495 0.000000
      CHANNELS 3 Yrotation Xrotation Zrotation
      JOINT RightShoulder
      {
       OFFSET -13.795216 0.000000 0.000000
       CHANNELS 3 Yrotation Xrotation Zrotation
       JOINT RightElbow
       {
        OFFSET -30.272209 0.000000 0.000000
        CHANNELS 3 Yrotation Xrotation Zrotation
        JOINT RightWrist
        {
         OFFSET -24.478199 0.000000 0.000000
         CHANNELS 3 Yrotation Xrotation Zrotation
         End Site
         {
          OFFSET -18.090752 0.000000 0.000000
         }
        }
       }
      }
     }
     JOINT LeftCollar
     {
      OFFSET 2.923010 9.499495 0.000000
      CHANNELS 3 Yrotation Xrotation Zrotation
      JOINT LeftShoulder
      {
       OFFSET 13.795216 0.000000 0.000000
       CHANNELS 3 Yrotation Xrotation Zrotation
       JOINT LeftElbow
       {
        OFFSET 30.272209 0.000000 0.000000
        CHANNELS 3 Yrotation Xrotation Zrotation
        JOINT LeftWrist
        {
         OFFSET 24.478199 0.000000 0.000000
         CHANNELS 3 Yrotation Xrotation Zrotation
         End Site
         {
          OFFSET 18.090752 0.000000 0.000000
         }
        }
       }
      }
     }
    }
   }
  }
 }
 JOINT RightHip
 {
  OFFSET -7.826875 0.019532 0.001973
  CHANNELS 3 Yrotation Xrotation Zrotation
  JOINT RightKnee
  {
   OFFSET 0.000000 -40.546152 -0.001885
   CHANNELS 3 Yrotation Xrotation Zrotation
   JOINT RightAnkle
   {
    OFFSET 0.000000 -39.417092 -0.003189
    CHANNELS 3 Yrotation Xrotation Zrotation
    JOINT RightToe
    {
     OFFSET 0.000000 -7.579396 17.243563
     CHANNELS 3 Yrotation Xrotation Zrotation
     End Site
     {
      OFFSET 0.000000 -1.500329 6.694466
     }
    }
   }
  }
 }
 JOINT LeftHip
 {
  OFFSET 7.826875 0.019532 0.001973
  CHANNELS 3 Yrotation Xrotation Zrotation
  JOINT LeftKnee
  {
   OFFSET 0.000000 -40.546152 -0.001885
   CHANNELS 3 Yrotation Xrotation Zrotation
   JOINT LeftAnkle
   {
    OFFSET 0.000000 -39.417092 -0.003189
    CHANNELS 3 Yrotation Xrotation Zrotation
    JOINT LeftToe
    {
     OFFSET 0.000000 -7.579396 17.243563
     CHANNELS 3 Yrotation Xrotation Zrotation
     End Site
     {
      OFFSET 0.000000 -1.500329 6.694466
     }
    }
   }
  }
 }
}
MOTION
Frames: 15
Frame Time: 0.008333
25.187270 86.597352 -8.409719 71.208419 -2.456727 5.561068 4.119739 5.356756 1.554829 2.320656 3.055769 0.743409 2.908043 3.814789 0.948922 2.320656 3.055769 0.743409 14.821088 16.223832 -13.531632 21.460213 -6.265281 -20.200991 -12.105791 -4.166731 -6.221069 -3.776938 0.238149 83.862412 82.214518 -28.715757 30.945040 22.135333 -11.005572 -16.106868 -16.551518 -9.149766 6.796364 -17.716241 -21.988224 -100.452905 -22.306768 7.478099 -38.233425 -15.216346 -12.482409 10.649269 -16.483492 5.548885 -18.519291 -4.559150 11.163791 -0.723244 -11.430878 -11.838910 13.212307 0.006252 0.316382 -0.044456 4.354914 -8.327344 5.644438 -0.103571 6.168145 -0.989180 -11.867357 1.742453 -8.579360 -0.089664 -0.149362 -0.053730
25.216602 86.597909 -8.362245 71.119357 -2.552536 5.529475 4.108866 5.335496 1.544854 2.315102 3.043278 0.740231 2.901037 3.799208 0.944821 2.315102 3.043278 0.740231 14.750213 16.211818 -13.382052 21.311742 -6.320867 -19.977894 -12.114865 -4.101443 -6.161184 -3.826649 0.328406 83.904547 82.150161 -28.740300 30.991661 22.202375 -11.005829 -16.141652 -16.434221 -9.062932 6.714833 -17.733742 -21.998238 -100.345790 -22.393871 7.574224 -38.284459 -14.979566 -12.370674 10.520932 -16.474418 5.705667 -18.505330 -4.551480 11.080943 -0.709392 -11.391831 -11.820873 13.186587 0.006283 0.313371 -0.041586 4.367379 -8.209378 5.706053 -0.078028 6.230681 -0.967917 -11.828715 1.651195 -8.594664 -0.086270 -0.137393 -0.052748
25.242672 86.599249 -8.318686 71.018737 -2.652225 5.501437 4.104471 5.319219 1.536459 2.312967 3.033559 0.737531 2.898319 3.787082 0.941363 2.312967 3.033559 0.737531 14.689329 16.202833 -13.218740 21.171740 -6.372835 -19.740454 -12.140808 -4.030634 -6.111827 -3.850878 0.388073 83.954824 82.076493 -28.760951 31.023354 22.267057 -11.010092 -16.195583 -16.336066 -8.976171 6.632708 -17.696585 -21.969428 -100.288615 -22.465555 7.646706 -38.330099 -14.730969 -12.251966 10.397517 -16.456358 5.845700 -18.498949 -4.538290 11.026815 -0.691966 -11.352650 -11.810391 13.158166 0.006679 0.308603 -0.037134 4.396600 -8.087135 5.762031 -0.068396 6.289500 -0.944939 -11.789312 1.564465 -8.607185 -0.083574 -0.128582 -0.055473
25.265119 86.601248 -8.279562 70.903393 -2.753686 5.478058 4.102605 5.310403 1.530717 2.312018 3.027691 0.735509 2.897100 3.779762 0.938789 2.312018 3.027691 0.735509 14.640272 16.192967 -13.045776 21.044406 -6.424861 -19.495101 -12.166558 -3.962857 -6.070051 -3.843521 0.418769 84.003370 82.005534 -28.779225 31.030567 22.317509 -11.022536 -16.264537 -16.253061 -8.891334 6.560814 -17.601419 -21.900322 -100.288541 -22.516646 7.684155 -38.371029 -14.485012 -12.129878 10.285867 -16.425744 5.964313 -18.501363 -4.515723 11.005644 -0.670708 -11.313049 -11.809382 13.127799 0.006838 0.301930 -0.031569 4.440868 -7.963772 5.813011 -0.074946 6.347873 -0.920931 -11.749783 1.480127 -8.617973 -0.082326 -0.123607 -0.061006
25.283773 86.603875 -8.245693 70.777186 -2.855586 5.461986 4.099233 5.309016 1.527175 2.310112 3.025860 0.734272 2.894701 3.777486 0.937215 2.310112 3.025860 0.734272 14.600157 16.180859 -12.866072 20.926992 -6.478615 -19.244805 -12.181684 -3.900175 -6.029821 -3.811184 0.421295 84.039371 81.944045 -28.794610 31.014099 22.346525 -11.041235 -16.336632 -16.183640 -8.807282 6.499918 -17.456382 -21.791606 -100.337403 -22.551920 7.685985 -38.408473 -14.266170 -12.010298 10.191983 -16.382597 6.058368 -18.515874 -4.482275 11.021658 -0.645345 -11.272269 -11.819929 13.095478 0.006447 0.292421 -0.024160 4.489032 -7.842267 5.853790 -0.091194 6.410433 -0.896111 -11.694693 1.398040 -8.623743 -0.081019 -0.121647 -0.067918
25.298493 86.607097 -8.217332 70.644084 -2.957386 5.452726 4.093639 5.313838 1.526228 2.306335 3.028034 0.734075 2.889983 3.780213 0.936951 2.306335 3.028034 0.734075 14.563611 16.167866 -12.680253 20.812414 -6.533308 -18.988424 -12.187789 -3.844200 -5.985803 -3.766233 0.399837 84.058448 81.890670 -28.802984 30.987360 22.357400 -11.060417 -16.400460 -16.132921 -8.721581 6.449720 -17.276170 -21.653606 -100.417578 -22.580260 7.658352 -38.440527 -14.105758 -11.901403 10.127716 -16.324532 6.129468 -18.541453 -4.437467 11.074875 -0.616744 -11.231615 -11.841629 13.061211 0.006536 0.278626 -0.014203 4.530299 -7.724616 5.883877 -0.109023 6.480552 -0.870552 -11.616539 1.317354 -8.623597 -0.078479 -0.121635 -0.074625
25.309273 86.610859 -8.194380 70.507020 -3.059366 5.448507 4.085124 5.323906 1.528413 2.300155 3.033669 0.734897 2.882277 3.787264 0.937965 2.300155 3.033669 0.734897 14.526488 16.156725 -12.488328 20.694943 -6.586341 -18.724360 -12.186272 -3.794772 -5.934799 -3.713924 0.358830 84.057468 81.842805 -28.805117 30.955713 22.356108 -11.078481 -16.445908 -16.097910 -8.633738 6.408058 -17.089171 -21.499626 -100.507213 -22.614425 7.611627 -38.460850 -14.027623 -11.812848 10.106703 -16.252486 6.179463 -18.574210 -4.383528 11.163498 -0.585226 -11.200823 -11.872024 13.027711 0.006665 0.261610 -0.004195 4.562022 -7.611221 5.906245 -0.121927 6.557703 -0.843417 -11.528398 1.237618 -8.619295 -0.075945 -0.123979 -0.081298
25.316360 86.615068 -8.176526 70.369614 -3.163132 5.447638 4.071506 5.338780 1.533615 2.290654 3.041873 0.736681 2.870434 3.797528 0.940170 2.290655 3.041874 0.736681 14.484901 16.150107 -12.290884 20.569450 -6.635035 -18.451903 -12.171674 -3.752418 -5.878135 -3.652102 0.305250 84.038656 81.798919 -28.806017 30.913992 22.348303 -11.096827 -16.470283 -16.066248 -8.542039 6.371357 -16.928717 -21.343198 -100.584957 -22.665434 7.552018 -38.467025 -14.035148 -11.754131 10.136307 -16.179047 6.208220 -18.612613 -4.323416 11.285310 -0.550080 -11.182467 -11.908830 12.997844 0.005794 0.243418 0.002461 4.586296 -7.501144 5.923544 -0.129971 6.639967 -0.813704 -11.444367 1.159190 -8.613569 -0.074952 -0.129577 -0.088115
25.320110 86.619592 -8.163748 70.234251 -3.269731 5.451385 4.051604 5.357373 1.541064 2.277264 3.051842 0.739023 2.853737 3.810003 0.943053 2.277265 3.051843 0.739023 14.433863 16.150062 -12.089859 20.429900 -6.677433 -18.171781 -12.139916 -3.716658 -5.817854 -3.583455 0.245813 84.008695 81.754134 -28.808832 30.866767 22.339348 -11.115874 -16.479477 -16.031244 -8.443773 6.335373 -16.812733 -21.197597 -100.638222 -22.733114 7.477846 -38.460440 -14.111069 -11.732343 10.215455 -16.117773 6.216329 -18.662057 -4.256101 11.434870 -0.511957 -11.158014 -11.951282 12.972494 0.004622 0.223630 0.005298 4.605824 -7.395164 5.932895 -0.135720 6.729719 -0.780150 -11.363198 1.082346 -8.609002 -0.074870 -0.138999 -0.092864
25.320912 86.624247 -8.156049 70.102857 -3.379910 5.462259 4.025686 5.378809 1.549374 2.260546 3.063261 0.741447 2.832882 3.824297 0.946018 2.260546 3.063262 0.741447 14.368088 16.156472 -11.889389 20.270833 -6.713878 -17.887624 -12.094754 -3.682927 -5.755589 -3.519291 0.177183 83.970956 81.694423 -28.816794 30.833163 22.335870 -11.133070 -16.482303 -15.996669 -8.342641 6.292768 -16.725352 -21.064348 -100.666734 -22.810251 7.400495 -38.450146 -14.230041 -11.749167 10.335400 -16.070237 6.206167 -18.727564 -4.179179 11.609613 -0.469556 -11.120763 -12.000183 12.949263 0.002811 0.201881 0.006710 4.624560 -7.294552 5.929972 -0.135632 6.829910 -0.740420 -11.290942 1.007784 -8.607360 -0.074404 -0.153023 -0.094402
25.318827 86.628741 -8.152707 69.973239 -3.493435 5.478906 3.996344 5.402764 1.557529 2.242250 3.075918 0.743442 2.810055 3.840146 0.948441 2.242251 3.075919 0.743442 14.285572 16.166076 -11.692779 20.091091 -6.748070 -17.603307 -12.040222 -3.647730 -5.691842 -3.472494 0.094233 83.925482 81.604115 -28.834534 30.830061 22.341780 -11.144142 -16.483675 -15.967552 -8.242925 6.242768 -16.637577 -20.938600 -100.676784 -22.890268 7.335538 -38.449300 -14.371268 -11.797779 10.483304 -16.023579 6.180496 -18.802887 -4.092184 11.811032 -0.421966 -11.092983 -12.055961 12.926131 -0.000598 0.180571 0.008557 4.650843 -7.200375 5.916209 -0.130189 6.942398 -0.695841 -11.229122 0.933883 -8.606088 -0.072903 -0.170008 -0.093940
25.313285 86.632749 -8.153112 69.840358 -3.605950 5.499631 3.966637 5.427183 1.565916 2.223638 3.089031 0.744947 2.786830 3.856567 0.950250 2.223639 3.089032 0.744948 14.188238 16.175007 -11.501603 19.894149 -6.784037 -17.321807 -11.977763 -3.612935 -5.628205 -3.443899 -0.001459 83.873892 81.482615 -28.863693 30.853638 22.348055 -11.147845 -16.481206 -15.941605 -8.143586 6.186916 -16.543192 -20.821289 -100.672597 -22.966756 7.277389 -38.459790 -14.518386 -11.862326 10.641686 -15.963708 6.140735 -18.881850 -3.993445 12.034907 -0.370132 -11.083480 -12.118415 12.901138 -0.003551 0.161150 0.012560 4.694856 -7.115231 5.893938 -0.129721 7.064583 -0.650186 -11.168103 0.859863 -8.601254 -0.070871 -0.187562 -0.093461
25.303770 86.636022 -8.156992 69.701190 -3.712873 5.524198 3.938457 5.450488 1.575223 2.205538 3.102303 0.746746 2.764249 3.873186 0.952431 2.205539 3.102304 0.746747 14.079134 16.178896 -11.315425 19.684263 -6.826522 -17.043884 -11.909468 -3.585978 -5.569342 -3.423963 -0.103330 83.821092 81.344614 -28.896375 30.884461 22.345241 -11.148684 -16.472826 -15.917471 -8.043617 6.122086 -16.451806 -20.716084 -100.650993 -23.038903 7.213608 -38.478098 -14.658352 -11.928892 10.794835 -15.885517 6.088510 -18.963414 -3.879796 12.271836 -0.314799 -11.085663 -12.186241 12.872473 -0.004339 0.143726 0.019662 4.761421 -7.039593 5.864649 -0.142102 7.188460 -0.605741 -11.103739 0.788453 -8.592912 -0.068345 -0.204710 -0.093579
25.290328 86.638421 -8.164003 69.553692 -3.812986 5.552219 3.913399 5.472807 1.585981 2.188911 3.115761 0.749343 2.743516 3.890028 0.955621 2.188913 3.115762 0.749343 13.960354 16.174912 -11.131831 19.463591 -6.878877 -16.767306 -11.837432 -3.568013 -5.518546 -3.405813 -0.209088 83.770402 81.203389 -28.921276 30.906484 22.333153 -11.152880 -16.457656 -15.894373 -7.942111 6.045179 -16.375777 -20.626738 -100.605774 -23.108250 7.136803 -38.502060 -14.787639 -11.991687 10.937591 -15.791414 6.024992 -19.045691 -3.755509 12.514919 -0.259511 -11.093651 -12.257207 12.842320 -0.003689 0.129415 0.027979 4.846051 -6.970639 5.830873 -0.168236 7.308000 -0.563866 -11.032072 0.721037 -8.583699 -0.064877 -0.220551 -0.093125
25.273367 86.639906 -8.173770 69.399176 -3.907518 5.582693 3.889576 5.495247 1.598519 2.172968 3.129138 0.752839 2.723645 3.906763 0.959940 2.172969 3.129139 0.752839 13.832121 16.163236 -10.948984 19.231826 -6.941025 -16.489767 -11.761955 -3.553138 -5.477005 -3.384466 -0.322538 83.720943 81.060210 -28.941241 30.917472 22.312882 -11.161207 -16.433426 -15.867690 -7.837699 5.955350 -16.317947 -20.555566 -100.538142 -23.172221 7.040577 -38.527237 -14.903637 -12.045473 11.065577 -15.693940 5.948274 -19.126343 -3.630171 12.762503 -0.206235 -11.107968 -12.329378 12.814217 -0.004066 0.120897 0.033717 4.934248 -6.904720 5.796702 -0.199380 7.420527 -0.524591 -10.957024 0.656777 -8.576404 -0.062084 -0.234956 -0.091964
